<?xml version="1.0" standalone="no"?>
<!DOCTYPE svg PUBLIC "-//W3C//DTD SVG 20010904//EN"
 "http://www.w3.org/TR/2001/REC-SVG-20010904/DTD/svg10.dtd">
<svg version="1.0" xmlns="http://www.w3.org/2000/svg"
 width="512.000000pt" height="512.000000pt" viewBox="0 0 512.000000 512.000000"
 preserveAspectRatio="xMidYMid meet">
<metadata>
Created by potrace 1.11, written by Peter Selinger 2001-2013
</metadata>
<g transform="translate(0.000000,512.000000) scale(0.100000,-0.100000)"
fill="#000000" stroke="none">
<path d="M2699 4826 c-2 -2 -19 -7 -38 -9 -33 -6 -106 -69 -94 -81 3 -3 0 -12
-7 -21 -7 -8 -9 -15 -5 -15 4 0 3 -6 -2 -12 -5 -7 -8 -23 -7 -35 0 -13 -2 -23
-6 -23 -11 0 -23 -40 -35 -114 -3 -22 -9 -44 -13 -50 -3 -6 -8 -20 -9 -30 -2
-11 -8 -25 -14 -33 -6 -7 -9 -13 -6 -13 5 0 -77 -258 -86 -266 -2 -3 -37 -7
-76 -9 -40 -2 -77 -8 -84 -12 -7 -4 -23 -9 -37 -11 -14 -2 -29 -7 -34 -13 -6
-5 -16 -9 -23 -9 -22 0 -104 -58 -155 -109 -29 -29 -67 -86 -94 -138 -28 -55
-52 -88 -62 -89 -41 -3 -104 -27 -130 -49 -31 -26 -58 -100 -54 -145 2 -14 10
-46 18 -72 15 -45 14 -49 -22 -163 -20 -64 -37 -129 -39 -143 -1 -15 -15 -67
-30 -117 -16 -49 -28 -97 -28 -105 1 -8 -7 -43 -17 -77 -10 -33 -22 -80 -25
-103 -3 -23 -11 -54 -16 -69 -6 -14 -12 -39 -14 -56 -1 -16 -8 -50 -15 -75 -7
-25 -14 -62 -16 -83 -2 -20 -6 -42 -10 -48 -3 -6 -8 -31 -10 -55 -2 -24 -8
-53 -14 -63 -5 -11 -8 -26 -5 -33 3 -8 -1 -30 -9 -50 -8 -19 -13 -38 -10 -41
3 -3 0 -25 -7 -48 -6 -24 -13 -62 -15 -83 -1 -21 -7 -42 -13 -46 -6 -3 -14
-28 -17 -56 -3 -27 -8 -60 -10 -74 -3 -14 -6 -38 -8 -55 -2 -16 -7 -48 -11
-70 -4 -22 -8 -49 -8 -60 -1 -11 -6 -23 -12 -27 -6 -5 -5 -8 3 -8 8 0 10 -5 5
-12 -4 -7 -8 -24 -9 -38 -2 -14 -5 -38 -9 -55 -3 -16 -5 -43 -4 -60 3 -50 0
-111 -16 -265 -3 -36 -8 -90 -11 -120 -2 -30 -6 -80 -9 -110 -3 -30 -7 -85 -9
-121 -2 -37 -6 -72 -10 -77 -3 -6 -2 -13 4 -17 6 -4 7 -12 3 -18 -14 -22 -9
-62 9 -75 10 -7 18 -18 18 -23 0 -5 10 -21 23 -34 12 -13 46 -48 75 -79 29
-31 59 -56 66 -56 8 0 16 -7 19 -15 6 -14 147 -90 147 -79 0 3 17 -8 39 -25
21 -17 49 -32 62 -33 13 -2 26 -6 29 -9 3 -4 21 -10 41 -13 20 -3 43 -8 51
-11 9 -4 19 -1 23 5 5 8 11 8 19 0 7 -5 39 -11 70 -11 31 -1 59 -6 62 -10 3
-5 9 -7 13 -5 4 3 36 7 72 10 90 8 133 16 137 27 2 5 10 9 18 9 8 0 14 4 14 8
0 9 41 61 82 104 15 15 25 28 23 28 -4 0 58 98 75 117 5 7 10 17 10 22 0 5 6
16 13 23 7 7 23 34 37 60 14 27 28 48 32 48 5 0 8 7 8 15 0 7 8 19 18 24 9 6
13 11 9 11 -5 0 0 12 10 28 33 50 43 67 54 92 5 13 14 27 18 30 4 3 20 30 34
62 15 31 31 58 37 60 5 1 11 13 13 26 2 13 8 27 15 31 6 3 16 18 21 31 10 23
15 33 41 78 16 27 35 76 32 85 -1 4 2 7 7 7 9 0 71 120 71 138 0 6 7 18 16 26
8 9 17 25 19 37 2 12 9 27 15 33 14 18 71 126 66 126 -3 0 8 25 25 56 16 31
29 65 29 76 0 10 4 17 9 13 9 -5 34 54 40 94 0 5 7 16 14 23 8 7 22 38 32 68
10 30 24 64 31 75 7 11 23 49 35 85 12 36 26 67 30 70 5 3 17 34 28 67 11 34
29 79 39 100 19 36 39 89 47 123 2 8 4 16 5 18 2 1 3 5 4 10 1 4 6 22 10 40 4
18 12 30 17 26 5 -3 9 3 9 13 0 11 5 24 11 30 10 10 19 44 22 91 1 12 6 22 11
22 4 0 6 7 2 15 -3 8 -2 15 2 15 8 0 15 39 14 85 -1 34 -3 45 -21 98 -10 30
-10 41 -1 52 7 8 9 15 4 15 -5 0 -2 6 6 13 14 11 19 22 24 52 1 6 5 15 9 22 4
6 3 14 -2 18 -6 3 -8 12 -4 20 3 8 0 15 -6 15 -6 0 -11 7 -11 15 0 8 -5 15
-10 15 -11 0 -7 71 5 90 5 8 12 54 19 123 2 15 -1 30 -5 32 -4 3 -6 16 -4 30
1 14 -1 25 -5 25 -5 0 -6 8 -3 19 3 10 0 22 -6 25 -6 4 -11 18 -11 32 0 13 -4
24 -8 24 -4 0 -13 12 -19 28 -19 43 -35 64 -91 120 l-53 52 66 208 c36 114 70
217 76 230 5 13 7 28 4 33 -4 5 -3 9 2 9 4 0 9 14 10 32 1 17 6 34 10 37 5 3
9 15 10 26 5 41 9 60 15 71 4 5 5 19 3 30 -2 10 -4 22 -4 25 -3 23 -81 82
-161 121 -14 7 -28 16 -31 21 -3 5 -12 9 -20 10 -8 2 -34 13 -59 26 -53 28
-152 59 -212 67 -24 4 -51 10 -60 15 -9 5 -27 9 -40 8 -63 -1 -154 7 -159 14
-3 4 -7 5 -10 3z m115 -193 c50 -4 91 -10 91 -13 0 -1 16 -4 35 -6 37 -5 48
-9 122 -43 26 -12 57 -23 68 -24 11 -1 20 -7 20 -13 0 -7 14 -15 30 -19 17 -4
28 -11 24 -16 -3 -5 4 -9 14 -9 21 0 58 -46 42 -52 -5 -2 -11 -12 -13 -23 -1
-11 -6 -26 -10 -32 -5 -7 -10 -22 -13 -33 -2 -11 -6 -29 -9 -40 -3 -11 -7 -29
-9 -39 -3 -11 -9 -28 -15 -39 -6 -11 -8 -22 -4 -25 3 -4 1 -13 -6 -20 -6 -8
-12 -26 -13 -41 -1 -14 -6 -26 -11 -26 -4 0 -6 -4 -3 -9 3 -5 -10 -58 -30
-117 -19 -60 -38 -120 -40 -134 -3 -13 -10 -30 -16 -37 -6 -7 -8 -13 -4 -13 3
0 0 -16 -8 -35 -13 -31 -13 -36 0 -50 9 -8 20 -13 25 -10 5 4 9 2 9 -4 0 -5
13 -12 29 -16 16 -3 37 -15 46 -25 10 -11 23 -17 29 -13 6 3 8 3 4 -1 -4 -5 5
-19 19 -32 63 -59 86 -174 53 -271 -26 -77 -25 -110 5 -169 21 -42 23 -51 10
-63 -11 -11 -19 -12 -42 -3 -15 7 -37 12 -48 12 -21 0 -69 4 -142 13 -24 3
-48 9 -54 12 -6 4 -31 9 -57 11 -25 3 -52 10 -59 16 -7 6 -13 8 -13 4 0 -3
-16 0 -35 8 -20 9 -52 17 -73 20 -59 8 -118 23 -177 47 -11 4 -37 13 -57 19
-21 6 -38 16 -38 21 0 6 -4 7 -10 4 -5 -3 -10 -1 -10 4 0 6 -3 10 -7 9 -14 -3
-147 42 -179 61 -17 10 -48 24 -70 31 -21 7 -45 19 -52 27 -7 7 -22 13 -32 13
-11 0 -24 9 -30 19 -6 13 -18 18 -35 17 -16 -2 -25 2 -25 10 0 8 -6 14 -13 14
-12 0 -30 12 -79 52 l-21 18 29 10 c36 14 104 86 104 111 0 11 4 19 8 19 4 0
8 12 8 28 0 29 33 102 46 102 4 0 8 6 8 13 0 18 91 77 136 88 51 14 146 16
161 6 7 -5 27 -11 45 -13 26 -4 36 0 46 17 8 11 9 18 3 14 -8 -4 -8 1 -2 17 9
20 164 494 166 508 5 23 36 113 45 129 6 12 16 18 22 15 6 -4 34 -9 62 -11z"/>
<path d="M4085 4317 c-5 -7 -15 -22 -21 -33 -52 -93 -64 -116 -64 -123 0 -5
25 -24 55 -42 33 -20 58 -43 61 -56 4 -13 10 -21 14 -18 8 5 41 -36 70 -87 48
-85 70 -128 64 -128 -4 0 0 -7 7 -16 17 -20 48 -148 44 -181 -1 -12 1 -23 4
-23 11 0 9 -55 -2 -62 -9 -6 -9 -8 1 -8 6 0 12 -7 12 -15 0 -8 -5 -15 -11 -15
-8 0 -8 -4 0 -14 8 -10 9 -21 3 -33 -12 -23 -32 -86 -32 -101 0 -6 21 -20 47
-32 26 -11 50 -25 53 -31 11 -17 79 -23 84 -8 29 98 37 131 39 160 1 19 6 39
10 45 11 18 5 94 -7 94 -6 0 -4 5 4 10 12 8 13 13 2 30 -7 11 -8 20 -3 20 6 0
3 12 -5 28 -7 15 -14 44 -14 64 0 20 -4 39 -10 43 -5 3 -7 12 -4 19 3 7 -2 20
-10 29 -12 11 -13 16 -3 20 8 2 7 8 -5 21 -10 9 -22 35 -28 56 -6 22 -14 40
-19 40 -7 0 -45 71 -41 79 1 2 -5 8 -14 13 -9 5 -16 15 -16 22 0 15 -53 79
-112 138 -21 20 -38 42 -38 48 0 6 -5 8 -10 5 -6 -3 -16 0 -24 7 -52 49 -65
55 -81 35z"/>
<path d="M3575 4260 c-4 -16 -11 -30 -16 -30 -5 0 -8 -3 -7 -7 2 -11 -34 -85
-51 -103 -12 -12 -10 -15 13 -23 14 -5 26 -12 26 -17 0 -4 11 -11 25 -14 14
-4 25 -11 25 -16 0 -6 4 -10 10 -10 19 0 111 -87 136 -128 10 -17 21 -29 26
-26 4 3 8 1 8 -5 0 -5 6 -16 14 -23 13 -14 57 -93 62 -113 2 -5 10 -28 18 -50
8 -22 15 -50 16 -62 0 -12 4 -23 9 -25 15 -5 32 -132 30 -211 -2 -78 -15 -153
-29 -179 -6 -10 -10 -25 -10 -33 0 -27 -32 -115 -41 -115 -5 0 -9 -9 -9 -20 0
-13 7 -20 20 -20 11 0 20 -6 20 -14 0 -8 15 -17 35 -20 19 -4 35 -11 35 -17 0
-6 4 -8 9 -5 5 4 11 2 13 -3 1 -4 12 -11 23 -15 16 -5 23 1 34 27 8 17 13 35
12 40 0 4 3 7 7 7 5 0 15 26 22 58 7 31 17 62 21 67 13 18 31 139 34 235 3 98
-16 262 -33 283 -5 7 -13 31 -17 54 -4 23 -15 53 -24 65 -10 13 -21 37 -25 53
-7 27 -49 100 -76 132 -5 7 -10 17 -10 22 0 5 -9 13 -21 16 -11 4 -18 9 -15
12 3 3 0 11 -7 18 -7 7 -26 27 -43 46 -39 44 -114 106 -167 141 -23 16 -51 35
-62 43 -27 21 -33 19 -40 -15z"/>
</g>
</svg>
